<?xml version="1.0" standalone="no"?>
<!DOCTYPE svg PUBLIC "-//W3C//DTD SVG 20010904//EN"
 "http://www.w3.org/TR/2001/REC-SVG-20010904/DTD/svg10.dtd">
<svg version="1.0" xmlns="http://www.w3.org/2000/svg"
 width="210" height="48" viewBox="345 -30 200 250"
 preserveAspectRatio="xMidYMid meet">

<g transform="translate(-100,200) scale(0.100000,-0.100000)"
fill="#000000" stroke="none">
<path d="M1914 1946 c-40 -8 -87 -18 -105 -24 -19 -6 -83 -21 -144 -33 -60
-11 -153 -36 -205 -54 -52 -19 -149 -53 -215 -76 -137 -49 -509 -234 -623
-311 -240 -161 -373 -277 -474 -412 -74 -99 -102 -159 -88 -185 17 -32 102
-101 124 -101 30 0 46 18 46 51 0 27 -15 39 -49 39 -39 0 -40 20 -4 89 54 101
83 139 174 226 196 187 514 380 849 513 76 31 283 99 443 147 93 27 250 59
374 74 88 11 174 -4 252 -43 62 -32 86 -65 77 -107 -6 -32 -52 -105 -95 -153
-86 -94 -383 -296 -631 -428 -144 -76 -589 -280 -675 -309 -38 -12 -78 -32
-87 -43 -17 -20 -18 -20 -18 31 0 29 4 62 9 75 5 13 14 47 20 76 29 137 35
161 52 219 11 34 19 76 19 94 0 30 -1 31 -32 25 -33 -6 -65 -37 -89 -85 -8
-14 -26 -45 -41 -68 -35 -51 -35 -71 -3 -83 27 -10 28 -15 16 -75 -5 -22 -16
-76 -25 -120 -9 -44 -19 -90 -21 -101 -3 -15 -15 -23 -37 -28 -18 -3 -79 -25
-135 -47 -97 -39 -103 -43 -103 -70 0 -22 5 -30 22 -33 13 -2 68 -15 123 -28
l100 -23 8 -175 c4 -96 10 -181 12 -188 5 -14 77 -16 91 -2 6 6 5 47 -3 117
-7 60 -15 136 -19 171 l-7 63 84 -7 c46 -4 108 -15 138 -26 30 -10 64 -18 77
-18 25 0 113 -21 429 -101 147 -38 227 -64 304 -100 110 -52 138 -58 148 -33
13 34 -13 56 -115 99 -182 78 -557 176 -865 226 -178 28 -191 36 -181 101 8
49 22 62 94 88 36 13 90 33 120 46 30 12 69 24 85 27 32 5 138 47 195 78 19
10 105 52 191 92 166 79 493 269 594 346 294 223 392 376 304 476 -17 19 -65
52 -107 72 -73 37 -80 38 -191 40 -65 1 -148 -4 -187 -11z m-1170 -1252 c17
-45 9 -54 -53 -54 -105 0 -144 31 -70 57 51 18 116 16 123 -3z"/>
<path d="M7910 1759 c-91 -60 -418 -389 -550 -555 -96 -120 -116 -143 -133
-147 -11 -3 -21 1 -24 10 -3 8 -2 117 2 242 4 124 8 269 9 321 l1 95 -40 3
c-58 3 -84 -15 -135 -95 -25 -39 -58 -91 -74 -114 -16 -24 -43 -69 -59 -99
-17 -30 -35 -61 -41 -69 -15 -19 -103 -177 -162 -291 -27 -52 -52 -97 -56
-100 -3 -3 -25 -52 -48 -109 -22 -57 -54 -132 -70 -166 -42 -91 -70 -204 -70
-286 l0 -72 43 5 c56 7 147 65 144 93 -2 16 -11 21 -44 23 l-42 3 19 52 c10
29 22 68 25 87 4 19 15 53 25 75 10 22 34 81 54 130 20 50 45 108 55 130 78
166 105 221 111 225 4 3 29 49 55 103 27 53 52 97 56 97 3 0 19 28 34 61 30
67 70 130 89 141 27 15 37 -7 26 -53 -23 -88 -32 -186 -27 -296 4 -97 8 -120
31 -166 40 -78 54 -84 126 -47 59 30 138 102 209 190 124 155 308 350 450 477
74 66 96 81 107 72 20 -17 18 -122 -6 -291 -11 -78 -25 -207 -30 -287 -6 -80
-15 -191 -21 -246 -12 -120 -24 -644 -15 -680 9 -34 46 -47 98 -36 58 13 66
26 30 45 -24 13 -31 23 -35 58 -6 57 10 465 24 598 6 58 15 155 19 215 4 61
15 160 24 222 8 62 17 187 18 278 3 192 2 195 -87 195 -43 0 -61 -7 -115 -41z"/>
<path d="M9369 1627 l-109 -114 -163 -6 c-144 -5 -498 -54 -528 -73 -8 -4 -2
-74 7 -83 2 -2 23 2 46 8 58 17 109 27 198 42 41 6 134 22 205 34 72 12 133
20 138 18 21 -12 -3 -49 -102 -148 -60 -60 -142 -144 -183 -186 -87 -90 -288
-280 -349 -330 -52 -42 -88 -54 -96 -32 -3 8 -1 18 4 22 6 3 14 22 18 41 17
84 41 143 67 165 15 13 28 32 28 43 0 26 -31 52 -61 52 -40 -1 -67 -31 -105
-120 -28 -66 -37 -103 -41 -167 -5 -77 -5 -82 20 -107 33 -33 53 -33 130 2 57
26 299 216 309 241 1 5 28 36 59 68 50 52 212 230 314 344 21 24 56 65 76 90
35 43 89 75 103 62 14 -14 5 -78 -13 -97 -18 -19 -45 -115 -86 -304 -8 -40
-20 -81 -25 -90 -10 -18 -40 -145 -59 -247 -6 -33 -21 -105 -32 -160 -14 -62
-23 -138 -23 -200 -1 -94 0 -100 20 -103 11 -2 27 5 36 15 17 19 20 33 69 333
33 208 39 232 118 523 28 103 51 195 51 205 0 9 11 40 24 68 l24 51 203 6
c112 4 254 7 315 7 127 0 174 7 174 26 0 22 -82 27 -376 22 l-284 -5 7 26 c12
50 22 70 43 83 11 7 20 18 20 25 0 13 -57 63 -72 63 -6 0 -60 -51 -119 -113z"/>
<path d="M3855 1718 c-11 -6 -63 -56 -115 -110 l-95 -99 -145 -3 c-131 -4
-336 -28 -493 -58 l-58 -11 3 -41 c3 -48 5 -48 128 -23 41 9 129 25 195 37 66
12 151 28 189 35 74 14 96 11 96 -12 0 -18 -391 -423 -512 -530 -137 -121
-188 -163 -199 -163 -15 0 -10 69 11 140 15 50 30 78 57 104 33 32 36 39 27
63 -11 34 -57 42 -102 19 -39 -20 -178 -55 -251 -62 -55 -6 -64 -4 -118 27
-34 19 -73 33 -93 33 -33 1 -35 3 -38 39 -3 34 -5 37 -36 37 -35 0 -82 -40
-109 -95 -15 -32 -77 -226 -77 -243 0 -6 9 -14 20 -17 28 -9 64 16 97 68 61
96 74 113 101 129 28 17 30 16 87 -14 58 -30 60 -31 167 -25 59 4 124 13 144
22 l36 15 -6 -35 c-4 -20 -16 -56 -27 -81 -11 -26 -19 -68 -19 -99 0 -46 4
-56 27 -74 43 -34 66 -35 134 -5 99 45 223 152 414 360 61 65 146 157 190 204
44 47 106 115 138 152 68 78 104 105 120 89 12 -12 3 -55 -37 -171 -14 -41
-31 -102 -37 -135 -7 -33 -22 -91 -34 -130 -12 -38 -36 -133 -54 -210 -17 -77
-38 -167 -45 -200 -40 -167 -55 -329 -33 -352 10 -10 57 7 77 27 17 17 20 34
20 108 0 55 7 117 19 163 11 41 22 97 26 124 7 55 69 322 86 370 6 17 17 57
24 90 19 81 61 231 80 282 l16 41 137 -4 c75 -3 227 -1 337 3 192 8 200 9 203
29 3 20 -3 21 -111 27 -62 4 -207 2 -321 -3 -115 -6 -211 -9 -213 -6 -10 9 6
51 36 97 38 57 34 89 -13 89 -17 0 -40 -6 -51 -12z"/>
<path d="M4900 1308 c-51 -31 -156 -120 -225 -189 -48 -48 -71 -63 -115 -76
-52 -15 -141 -55 -272 -123 -87 -46 -95 -43 -104 37 -6 57 -11 72 -36 95 -17
16 -41 28 -54 28 -44 0 -118 -47 -201 -129 -73 -71 -83 -85 -83 -116 0 -33 2
-35 35 -35 38 0 142 48 188 86 38 32 59 30 80 -6 21 -36 51 -45 119 -37 51 6
156 50 208 87 33 23 78 26 86 5 4 -8 -10 -37 -31 -65 -20 -28 -35 -56 -32 -64
3 -7 20 -16 38 -18 41 -6 60 12 88 87 31 82 71 136 191 256 127 127 154 147
176 128 19 -15 13 -56 -21 -144 -33 -87 -47 -147 -43 -186 5 -52 33 -49 99 8
82 72 136 113 147 113 6 0 29 -26 52 -58 56 -81 103 -106 178 -97 128 16 307
92 307 130 0 33 -47 30 -143 -10 -48 -20 -106 -46 -130 -58 l-44 -22 -71 77
c-40 43 -85 82 -100 88 -31 11 -78 -4 -124 -40 -31 -24 -63 -26 -63 -4 0 9 11
37 23 63 13 25 27 74 31 107 6 53 4 63 -13 78 -31 28 -99 30 -141 4z m-836
-324 c12 -32 6 -44 -22 -44 -16 0 -37 7 -48 15 -19 15 -19 15 0 30 26 20 62
19 70 -1z"/>
<path d="M9680 1142 c-46 -20 -100 -87 -100 -123 0 -9 -10 -41 -23 -70 -35
-81 -52 -158 -38 -172 16 -16 73 17 97 56 51 86 110 156 130 157 12 0 48 -12
79 -26 54 -25 64 -26 151 -20 85 6 144 -4 144 -23 0 -3 -18 -13 -39 -22 -30
-13 -40 -24 -46 -48 -3 -17 -3 -36 1 -42 17 -28 174 28 217 77 25 29 53 31 67
4 15 -27 62 -50 105 -50 55 0 148 35 283 106 96 51 122 70 122 86 0 19 -4 20
-47 14 -25 -3 -65 -17 -87 -29 -76 -44 -101 -57 -179 -92 -106 -48 -107 -48
-107 26 0 56 -3 64 -34 95 -19 19 -42 34 -52 34 -11 0 -53 -11 -94 -24 -41
-13 -126 -32 -188 -41 l-113 -17 -60 32 c-46 24 -70 31 -102 28 l-42 -3 -5 44
c-5 46 -14 55 -40 43z m598 -166 c2 -10 -1 -23 -6 -28 -15 -15 -82 0 -82 17 0
35 82 46 88 11z"/>
</g>
</svg>
